<?xml version="1.0" encoding="UTF-8" standalone="no"?>
<!-- Created with Inkscape (http://www.inkscape.org/) -->

<svg
   xmlns:dc="http://purl.org/dc/elements/1.1/"
   xmlns:cc="http://creativecommons.org/ns#"
   xmlns:rdf="http://www.w3.org/1999/02/22-rdf-syntax-ns#"
   xmlns:svg="http://www.w3.org/2000/svg"
   xmlns="http://www.w3.org/2000/svg"
   xmlns:sodipodi="http://sodipodi.sourceforge.net/DTD/sodipodi-0.dtd"
   xmlns:inkscape="http://www.inkscape.org/namespaces/inkscape"
   width="1000"
   height="1000"
   viewBox="0 0 999.9997 999.99943"
   id="svg2"
   version="1.1"
   inkscape:version="0.92+devel unknown"
   sodipodi:docname="camptocamp.svg">
  <sodipodi:namedview
     id="base"
     pagecolor="#ffffff"
     bordercolor="#666666"
     borderopacity="1.0"
     inkscape:pageopacity="0.0"
     inkscape:pageshadow="2"
     inkscape:zoom="0.768"
     inkscape:cx="500"
     inkscape:cy="500"
     inkscape:document-units="px"
     inkscape:current-layer="g3028"
     showgrid="true"
     inkscape:window-width="1920"
     inkscape:window-height="1007"
     inkscape:window-x="0"
     inkscape:window-y="0"
     inkscape:window-maximized="1"
     units="px"
     inkscape:document-rotation="0">
    <inkscape:grid
       type="xygrid"
       id="grid889"
       spacingx="0.99999956"
       spacingy="0.99999956"
       enabled="false" />
  </sodipodi:namedview>
  <defs
     id="defs4" />
  <metadata
     id="metadata7">
    <rdf:RDF>
      <cc:Work
         rdf:about="">
        <dc:format>image/svg+xml</dc:format>
        <dc:type
           rdf:resource="http://purl.org/dc/dcmitype/StillImage" />
        <dc:title></dc:title>
      </cc:Work>
    </rdf:RDF>
  </metadata>
  <g
     transform="matrix(1.066667,0,0,1.066667,0,-122.52028)"
     id="layer1"
     inkscape:groupmode="layer"
     inkscape:label="Layer 1">
    <g
       id="g12"
       inkscape:label="ink_ext_XXXXXX"
       transform="matrix(1.25,0,0,-1.25,61.651654,1076.7687)">
      <g
         id="g3028"
         transform="translate(2.5228132,103.43534)">
        <path
           d="m 356.3041,455.3408 2.46,-1.65187 c 0.11812,-0.0881 4.73062,-3.52125 4.73062,-3.52125 0.63375,-0.47063 1.05938,-1.1925 1.21313,-2.03063 0.135,-0.81562 -0.0206,-1.68187 -0.42375,-2.3925 -23.73188,-39.59062 -95.04375,-72.50625 -106.50563,-64.54312 -0.63562,0.4425 -1.1175,1.1625 -1.27125,1.98937 -0.0563,0.27 -0.0769,0.54938 -0.0563,0.82688 0.0169,0.55875 0.15375,1.08562 0.42188,1.5675 l 2.50125,4.5 c 0.0562,1.53937 0.36562,4.185 1.77,5.9625 l 3.3825,1.82812 c 4.00312,0.70313 68.06437,23.31938 87.93187,56.50313 0.86438,1.40437 2.53688,1.83562 3.84563,0.96187"
           style="fill:#262323;fill-opacity:1;fill-rule:nonzero;stroke:none;stroke-width:1.875"
           id="path24"
           inkscape:connector-curvature="0" />
        <path
           d="M 143.78972,511.64143 C 118.84285,463.4483 27.655803,408.0893 20.684726,404.9633 14.85338,401.11122 10.753454,391.76542 10.528221,384.84455 c -0.01685,-0.40312 0.0199,-0.80625 0.09675,-1.20187 0.21244,-1.17188 0.788815,-2.1825 1.59675,-2.81813 14.482876,-11.1825 118.360949,61.04487 135.433989,94.7647 17.07304,33.71983 10.89322,26.43647 10.03714,30.25468 0,0 -5.8275,4.82812 -5.98125,4.9425 l -3.09563,2.32687 c -1.65375,1.2225 -3.76875,0.5775 -4.82625,-1.47187"
           style="fill:#000000;fill-opacity:1;fill-rule:nonzero;stroke:none;stroke-width:1.875"
           id="path26"
           inkscape:connector-curvature="0"
           sodipodi:nodetypes="ccccczcccc" />
        <path
           d="m 186.46472,548.7233 0.69375,-8.655 c 0.40125,-0.0394 39.9825,-4.69312 60.84938,-55.59937 28.27125,-68.94938 91.46812,-106.10625 241.55625,-141.92231 l 2.03814,8.88168 c -0.19313,0.06 -18.40689,5.78063 -87.35252,40.78313 -14.94375,7.59562 -46.46437,31.39687 -59.3325,41.28375 -17.7675,13.63312 -32.63625,31.83562 -47.04187,49.44375 -10.48125,12.8475 -20.385,24.9825 -30.675,34.32937 -51.75375,47.09063 -79.58063,32.11875 -80.73563,31.455"
           style="fill:#000000;fill-opacity:1;fill-rule:nonzero;stroke:none;stroke-width:1.875"
           id="path28"
           inkscape:connector-curvature="0" />
        <path
           d="m 435.9616,458.34268 c 9.02062,-5.60813 18.0975,-13.18313 27.71437,-21.20438 13.1925,-10.98187 26.79,-22.33875 42.21564,-30.31125 11.1525,-5.76937 38.445,-19.64437 50.98313,-23.67562 57.88687,-18.55875 72.81187,-21.0375 72.94687,-21.04875 l -0.67312,-6.30563 c -121.74,12.52875 -175.35752,33.03 -204.82127,78.34125 -21.78937,33.45188 -53.42625,33.44438 -53.73375,33.435 l -1.4625,5.9325 c 0.86438,0.5475 21.15563,13.15313 66.83063,-15.16312"
           style="fill:#262323;fill-opacity:1;fill-rule:nonzero;stroke:none;stroke-width:1.875"
           id="path50"
           inkscape:connector-curvature="0" />
        <path
           style="fill:none;fill-rule:evenodd;stroke:#000000;stroke-width:22.49999237;stroke-linecap:round;stroke-linejoin:miter;stroke-miterlimit:4;stroke-dasharray:none;stroke-opacity:1"
           d="m 273.46829,234.10403 c 0,0 23.98587,17.44353 37.96871,12.65624 11.32964,-3.6502 29.53123,-16.87498 25.31249,-33.74997 -4.21875,-16.87499 -83.94441,-86.21931 -52.28939,-77.07452 18.53941,5.35581 64.94563,-3.08168 64.94563,-3.08168"
           id="path928"
           inkscape:connector-curvature="0"
           sodipodi:nodetypes="cccsc" />
        <path
           style="fill:none;fill-rule:evenodd;stroke:#000000;stroke-width:28.12499237;stroke-linecap:round;stroke-linejoin:miter;stroke-miterlimit:4;stroke-dasharray:none;stroke-opacity:1"
           d="m 211.71389,268.90395 c -16.01596,1.01999 -29.06405,5.39165 -49.04927,-7.17299 -10.15653,-6.05261 -17.3614,-13.25671 -22.4262,-26.89676 -4.9357,-12.71045 -4.55614,-20.10045 -5.12013,-33.52694 -0.24454,-12.90001 -2.2857,-31.10211 2.32105,-46.24976 5.3979,-16.72 13.75584,-25.49027 25.92996,-30.50311 7.83364,-3.83711 27.97924,-8.2204 46.36822,-0.45608"
           id="path930"
           inkscape:connector-curvature="0"
           sodipodi:nodetypes="ccccccc" />
        <path
           style="fill:none;fill-rule:evenodd;stroke:#000000;stroke-width:28.12499237;stroke-linecap:round;stroke-linejoin:miter;stroke-miterlimit:4;stroke-dasharray:none;stroke-opacity:1"
           d="m 488.56928,266.87128 c -16.01597,1.01999 -29.06406,5.39165 -49.04928,-7.17299 -10.15653,-6.05262 -17.36139,-13.25671 -22.4262,-26.89677 -4.93569,-12.71044 -4.55614,-20.10045 -5.12013,-33.52693 -0.24453,-12.90002 -2.28569,-31.10211 2.32105,-46.24976 5.3979,-16.72 13.75584,-25.49026 25.92996,-30.5031 7.83365,-3.83711 27.97925,-8.2204 46.36822,-0.45609"
           id="path930-4"
           inkscape:connector-curvature="0"
           sodipodi:nodetypes="ccccccc" />
      </g>
    </g>
  </g>
</svg>
